# xmcd
#
# Track frame offsets: 
#        150
#        24413
#        44605
#        60440
#        87475
#        111510
#        130495
#        155743
#        175960
#        196788
#
# Disc length: 2940 seconds
#
# Revision: 0
# Processed by: cddbd v1.5.2PL0 Copyright (c) Steve Scherf et al.
# Submitted via: ExactAudioCopy v1.0b3
#
DISCID=8b0b7a0a
DTITLE=Quang Binh, Trang Thanh Lan - Gao Trang Trang Thanh
DYEAR=1994
DGENRE=
TTITLE0=Gao trang trang thanh
TTITLE1=Trang Thanh Lan - Neu ai co hoi
TTITLE2=Gang ma lo
TTITLE3=Quang Binh - Ve tham xu lanh
TTITLE4=Trang Thanh Lan - Mau tim thon thuc
TTITLE5=Trang Thanh Lan - Dau dan thu tren tuong voi trang
TTITLE6=Dam cuoi tren duong que
TTITLE7=Quang Binh - Tinh bo vo
TTITLE8=Duyen que
TTITLE9=Trang Thanh Lan - Han tinh
EXTD=
EXTT0=
EXTT1=
EXTT2=
EXTT3=
EXTT4=
EXTT5=
EXTT6=
EXTT7=
EXTT8=
EXTT9=
PLAYORDER=
